/* XPM */
static char *b39e9abd68fd4407cec85e292865e495ulOq9DdwevIx6lIr_0[] = {
/* columns rows colors chars-per-pixel */
"50 50 256 2 ",
"   c None",
".  c #6E521F",
"X  c #674D1D",
"o  c #684E1E",
"O  c #261D0A",
"+  c #271D0A",
"@  c #281E0B",
"#  c #73501E",
"$  c #654C1D",
"%  c #70531D",
"&  c #1E170B",
"*  c #231F0B",
"=  c #2C200C",
"-  c #291E0B",
";  c #1C1C0A",
":  c #704F1E",
">  c #714F1E",
",  c #4E3A16",
"<  c #2A1F0B",
"1  c #73551E",
"2  c #71541D",
"3  c #4D3A16",
"4  c #291F0B",
"5  c #423212",
"6  c #2C210C",
"7  c #533E17",
"8  c #604219",
"9  c #0E3F36",
"0  c #0D3E35",
"q  c #0E4239",
"w  c #3B2C10",
"e  c #197363",
"r  c #1D8775",
"t  c #1B7E6C",
"y  c #30290F",
"u  c #704E1E",
"i  c #26210C",
"p  c #0D2F27",
"a  c #1D8875",
"s  c #33FFE5",
"d  c #33FFE2",
"f  c #27C1A7",
"g  c #0E2E27",
"h  c #382A0F",
"j  c #6F541D",
"k  c #21180C",
"l  c #261C0A",
"z  c #0E3E35",
"x  c #0D2F28",
"c  c #1D8774",
"v  c #33FBD9",
"b  c #33F7D5",
"n  c #27BAA1",
"m  c #1E160B",
"M  c #6C521C",
"N  c #684E1B",
"B  c #33F6D5",
"V  c #6C511C",
"C  c #694F1E",
"Z  c #67481B",
"A  c #2B200B",
"S  c #5D4018",
"D  c #594219",
"F  c #543F18",
"G  c #37290F",
"H  c #26230D",
"J  c #6C4B1C",
"K  c #2B260E",
"L  c #31250D",
"P  c #63461A",
"I  c #604319",
"U  c #3A2B10",
"Y  c #33260E",
"T  c #24210C",
"R  c #251C0D",
"E  c #6B511C",
"W  c #0D3028",
"Q  c #25210C",
"!  c #5F4119",
"~  c #674D1B",
"^  c #25220C",
"/  c #2F230D",
"(  c #143E34",
")  c #113E36",
"_  c #113028",
"`  c #1F8371",
"'  c #33F8D5",
"]  c #271C0D",
"[  c #694F1B",
"{  c #413112",
"}  c #270900",
"|  c #2B7C65",
" . c #2EF0D0",
".. c #2EDFC1",
"X. c #30E5C6",
"o. c #33EBCB",
"O. c #2A200B",
"+. c #221F0B",
"@. c #714E1E",
"#. c #423112",
"$. c #261C09",
"%. c #270500",
"&. c #2D826A",
"*. c #33ECCC",
"=. c #33FAD8",
"-. c #27BCA2",
";. c #23200B",
":. c #6D4A1C",
">. c #412E10",
",. c #271607",
"<. c #280700",
"1. c #2D7D67",
"2. c #31EDCD",
"3. c #30ECCC",
"4. c #30F7D6",
"5. c #25BBA2",
"6. c #0E3028",
"7. c #35270E",
"8. c #331300",
"9. c #329178",
"0. c #31E6C7",
"q. c #31D3B6",
"w. c #32E0C2",
"e. c #26AD95",
"r. c #143D33",
"t. c #144A40",
"y. c #145044",
"u. c #270600",
"i. c #2E9E86",
"p. c #33EDCD",
"a. c #33FAD7",
"s. c #239F8A",
"d. c #0D2620",
"f. c #2A0C00",
"g. c #280B00",
"h. c #280000",
"j. c #2E977E",
"k. c #33FAD9",
"l. c #32F2D1",
"z. c #32F8D6",
"x. c #33FFE4",
"c. c #23AB95",
"v. c #0E433A",
"b. c #113A33",
"n. c #2AA58C",
"m. c #2FB69A",
"M. c #2FA88E",
"N. c #31D6B2",
"B. c #33F5D3",
"V. c #26AE96",
"C. c #1A6557",
"Z. c #1A7968",
"A. c #155F52",
"S. c #0E4036",
"D. c #0D3F36",
"F. c #0F322B",
"G. c #2AD6B9",
"H. c #33FFE0",
"J. c #33F8D7",
"K. c #33EACA",
"L. c #1F867A",
"P. c #0C201B",
"I. c #0D312B",
"U. c #0D3D34",
"Y. c #0D2E27",
"T. c #0D2B26",
"R. c #0D2D26",
"E. c #08231E",
"W. c #2AC8A6",
"Q. c #33F3D2",
"!. c #33FBD8",
"~. c #33FFE7",
"^. c #208F7B",
"/. c #0D2E28",
"(. c #0E4138",
"). c #165B56",
"_. c #23A890",
"`. c #23A08B",
"'. c #24A38D",
"]. c #2FDFBB",
"[. c #33ECCB",
"{. c #26B199",
"}. c #1D7969",
"|. c #156053",
" X c #175F51",
".X c #32FFDF",
"XX c #33F7D6",
"oX c #32EACA",
"OX c #0C211A",
"+X c #0D3029",
"@X c #175E51",
"#X c #32FFE0",
"$X c #33FCDA",
"%X c #33FFE6",
"&X c #15574B",
"*X c #1F8D7A",
"=X c #1F8E7B",
"-X c #197061",
";X c #0D2D27",
":X c #0D2E26",
">X c black",
",X c #463413",
"<X c #473514",
"1X c #3C2D11",
"2X c #433213",
"3X c black",
"4X c black",
"5X c black",
"6X c black",
"7X c black",
"8X c black",
"9X c black",
"0X c black",
"qX c black",
"wX c black",
"eX c black",
"rX c black",
"tX c black",
"yX c black",
"uX c black",
"iX c black",
"pX c black",
"aX c black",
"sX c black",
"dX c black",
"fX c black",
"gX c black",
"hX c black",
"jX c black",
"kX c black",
"lX c black",
"zX c black",
"xX c black",
"cX c black",
"vX c black",
"bX c black",
"nX c black",
"mX c black",
"MX c black",
"NX c black",
"BX c black",
"VX c black",
"CX c black",
"ZX c black",
"AX c black",
"SX c black",
"DX c black",
"FX c black",
"GX c black",
"HX c black",
"JX c black",
"KX c black",
"LX c black",
"PX c black",
"IX c black",
"UX c black",
/* pixels */
"                                                                                                    ",
"                                                                                                    ",
"                                                                                                    ",
"                                                                                                    ",
"                                                                                                    ",
"                                    S.S.0 9 9 9 9 9 9 9 9 9 9 9 9                                   ",
"                                    /./.;X;X;X;X;X;X;X;X;X;X;X;X:X                                  ",
"                                9 &X*X*X=X=X=X=X=X=X=X=X=X=X=X=X^.-X                                ",
"                                9 @X#X#X$Xv v v v v v v v v $X$X%Xa W                               ",
"                                S. X.X.X!.a.a.a.a.a.a.a.a.XXo.oXk.}.OX+XU.                          ",
"                                (.)._._.`.`.`.`.`.`.`.`.`.'.].[.Q.{.}.a |.                          ",
"                                    Y.Y.T.R.R.R.R.R.R.R.R.E.W.p.K.Q.!.~.^./.                        ",
"                                    S.S.0 D.D.D.D.D.D.D.D.F.G.H.J.*.K.v L.P.I.U.9                   ",
"                                    v.v.q q q q q q q q q b.n.m.M.N.*.B.V.C.Z.A.0                   ",
"                                                            f.g.h.j.k.o.l.z.x.c.p                   ",
"                                                            < + u.i.d p.*.o.a.s.d.                  ",
"                                                            7.Y 8.9.0.q.w.o.B e.r.t.y.              ",
"                                                      A A ;.S V :.>.,.<.1.v o.2.3.4.5.6.9           ",
"                                                      O.O.+.D C @.#.$.%.&.d *.*.o.=.-.g 0           ",
"                                                      L L ] F Z [ { O } |  ...X.o.B n g 0           ",
"                                                  + Q ! ! ~ w ^ /       ( ) _ ` ' B n g 0           ",
"                                                  T R I I E h + @         9 W c v B n g 0           ",
"                                                  T R I I E h + @         9 W c v B n g 0           ",
"                                          A < L L P I U U Y               9 x c v B n g 0           ",
"                                          @ + H H C J K K +               9 x c v B n g 0           ",
"                                    A A < S D F F G h                     9 x c v B n g 0           ",
"                                    A A < S D F F G h                     9 x c v B n g 0           ",
"                                    @ @ + V C Z Z l +                     9 x c v B n g 0           ",
"                                    4 4 m M u N N @ @                     9 x c v B n g 0           ",
"                                @ h j j 2 k l O O                         z x c v b n g 0           ",
"                                @ y 2 2 u i @ @ @                       9 9 p a s d f g 9           ",
"                              4 @ y 2 2 u i @ @ @                       9 9 p a s d f g 9           ",
"                          + 4 w 2 2 2 2 5                                     e r r t               ",
"                        4 4 4 2 2 8 * * +                                       9 0 q               ",
"                  @ @   4 4 2 2 2 4 4   +                                                           ",
"                  @ @ 4 4 2 2 2 4 4     +                                                           ",
"                  @ @ O 2 2 2 7 4 4                                                                 ",
"                  5 5 2 2 2 2 4 4 6                                                                 ",
"            < @ + 1 1 2 3 4 4 4                                                                     ",
"            - + ; : : > , + < <                                                                     ",
"            - + ; : : > , + < <                                                                     ",
"            # $ % & & * =                                                                           ",
"            . X o O O + @                                                                           ",
"                                                                                                    ",
"                                                                                                    ",
"                                                                                                    ",
"                                                                                                    ",
"                                                                                                    ",
"                                                                                                    ",
"                                                                                                    "
};
