/* XPM */
static char *_ef70f154ef647b7a663c781b2344ae5n53kEvLrSpXGVzuN[] = {
/* columns rows colors chars-per-pixel */
"50 50 227 2 ",
"   c None",
".  c #020302",
"X  c #0B0103",
"o  c #020A01",
"O  c #0B0A04",
"+  c #02030B",
"@  c #0C040B",
"#  c #010B0B",
"$  c #0B0C0A",
"%  c #130202",
"&  c #170708",
"*  c #061302",
"=  c #01120A",
"-  c #061808",
";  c #181705",
":  c #030413",
">  c #010A13",
",  c #0C0816",
"<  c #1B0013",
"1  c #15061A",
"2  c #041312",
"3  c #0A1819",
"4  c #111211",
"5  c #1C1414",
"6  c #141918",
"7  c #261E05",
"8  c #250218",
"9  c #261816",
"0  c #250F04",
"q  c #162808",
"w  c #02321C",
"e  c #122214",
"r  c #23280A",
"t  c #272719",
"y  c #2D3518",
"u  c #342E10",
"i  c #1E0B23",
"p  c #0B1C26",
"a  c #181B20",
"s  c #2A0124",
"d  c #300733",
"f  c #0C2B2B",
"g  c #172828",
"h  c #0E2E33",
"j  c #1A2A33",
"k  c #093331",
"l  c #0B3835",
"z  c #153433",
"x  c #19393C",
"c  c #13342D",
"v  c #2B2C2B",
"b  c #272928",
"n  c #382D23",
"m  c #29332B",
"M  c #363729",
"N  c #252937",
"B  c #2A3735",
"V  c #343433",
"C  c #36363A",
"Z  c #312F3C",
"A  c #4C2E1E",
"S  c #44331C",
"D  c #473723",
"F  c #513632",
"G  c #633F27",
"H  c #3F550C",
"J  c #19413A",
"K  c #16433A",
"L  c #3D4133",
"P  c #57482C",
"I  c #565D25",
"U  c #4B5520",
"Y  c #654B2C",
"T  c #654B36",
"R  c #68553B",
"E  c #745636",
"W  c #6F5030",
"Q  c #6E7B2C",
"!  c #70762B",
"~  c #686C2B",
"^  c #444A0C",
"/  c #1C3E4A",
"(  c #1B474B",
")  c #254649",
"_  c #394A4C",
"`  c #255651",
"'  c #264E50",
"]  c #2E5E68",
"[  c #296468",
"{  c #396D69",
"}  c #2D7D78",
"|  c #38767F",
" . c #316270",
".. c #4B494A",
"X. c #555758",
"o. c #4B4E4C",
"O. c #6E5247",
"+. c #6B4E40",
"@. c #67685A",
"#. c #686869",
"$. c #706F75",
"%. c #787A7A",
"&. c #697063",
"*. c #8D7746",
"=. c #967A48",
"-. c #8B6947",
";. c #A67C52",
":. c #A97A4C",
">. c #817775",
",. c #7D8C2F",
"<. c #298377",
"1. c #388679",
"2. c #878635",
"3. c #869535",
"4. c #A68B54",
"5. c #B08E5E",
"6. c #B48E54",
"7. c #ADB44C",
"8. c #88887C",
"9. c #91847C",
"0. c #BA9568",
"q. c #CB965B",
"w. c #D39E68",
"e. c #CD9D6B",
"r. c #C7A569",
"t. c #D8A469",
"y. c #D2A374",
"u. c #D8B86B",
"i. c #E6AB69",
"p. c #ECB56C",
"a. c #E7B46E",
"s. c #F2B36D",
"d. c #F4B86B",
"f. c #EBB473",
"g. c #EBBB74",
"h. c #E5B57C",
"j. c #EBB47B",
"k. c #E8B876",
"l. c #F4B574",
"z. c #F3BB74",
"x. c #F2B679",
"c. c #F3BA7B",
"v. c #F9B877",
"b. c #F2AE76",
"n. c #CEDA4A",
"m. c #D8E54B",
"M. c #D8E955",
"N. c #DBF357",
"B. c #D7E462",
"V. c #E9FD62",
"C. c #F2FF68",
"Z. c #F2F95B",
"A. c #456E82",
"S. c #348588",
"D. c #389387",
"F. c #3A9C98",
"G. c #32A69D",
"H. c #468687",
"J. c #4A8F91",
"K. c #499796",
"L. c #4A9D8D",
"P. c #4C9EA5",
"I. c #47A7A7",
"U. c #56ABA8",
"Y. c #57ACB6",
"T. c #4AB6B5",
"R. c #59B4B1",
"E. c #57B9B9",
"W. c #4EB1AF",
"Q. c #65BFBD",
"!. c #4DA49B",
"~. c #55C5BD",
"^. c #60C3BE",
"/. c #5CBDC3",
"(. c #58BAC7",
"). c #62BAC3",
"_. c #62BACE",
"`. c #4CCFC9",
"'. c #5DC5C2",
"]. c #5AC4CC",
"[. c #59C8C7",
"{. c #5CC2D2",
"}. c #63C2C4",
"|. c #63C6CB",
" X c #66C3D1",
".X c #8B8B8B",
"XX c #95988C",
"oX c #979899",
"OX c #8C8B91",
"+X c #95A49D",
"@X c #9EA4A4",
"#X c #A8A6AB",
"$X c #B4B6AB",
"%X c #ADADB2",
"&X c #B4B4B3",
"*X c #BDBDBD",
"=X c #B8B7B9",
"-X c #ABB4AF",
";X c #F4BC83",
":X c #ECBE80",
">X c #C2BFBA",
",X c #F2C282",
"<X c #BFBDCB",
"1X c #C4C4C5",
"2X c #CCCCCC",
"3X c #C9C8C9",
"4X c #CCD6CD",
"5X c #D8D9CB",
"6X c #D6C9D8",
"7X c #D3D3D2",
"8X c #DADADA",
"9X c #DBD3D9",
"0X c #CDCCCC",
"qX c #EADCDC",
"wX c #DBE0D9",
"eX c #E1E2DC",
"rX c #DDCEE5",
"tX c #E1DEE5",
"yX c #DFE8E7",
"uX c #E3E3E3",
"iX c #EBEBEB",
"pX c #EBE8F5",
"aX c #F5F5F4",
"sX c #F4FBFD",
"dX c #FEFEFE",
"fX c #FAF9F6",
"gX c #F8F5F1",
/* pixels */
"                                              dXdXdXdXdXdXdXdXdXdXdXdXdXdXdXdXdXdX                  ",
"                                            dXdXdXdXdXdXdXdXdXdXdXdXdXdXdXdXdXdXdXdX                ",
"                                          dXdX                                    dX                ",
"                                            dXdXdXdXdXdXdXdXdXdXdXdXdXdXdXdXdXdXdXdX                ",
"                                            dXdXdXdXdXdXdXdXdXdXdXdXdXdXdXdXdXdX                    ",
"                                                                                                    ",
"                                                                                                    ",
"                                                                                                    ",
"                                      & 3 e e X X             @ r ; u q q y q e .                   ",
"    s s < & & s                   @ @ o +X+X<XO O + @ % < X X o 7.7.M.M.m.M.4.7.o O X               ",
"    @ @ o.&.&.X                   b t %.9X9XpX.X.X9.%.%.= u y 2.m.m.C.V.V.V.M.M.,.u u %             ",
"@ , = = #XtXtXn 4 > , i           _ _ dXfXdXdXsXsXaX6X0X5 ! ! Z.N.N.M.m.m.m.m.m.N.~ ~ * . .         ",
"m m 7X7XiXdXdXwX@.@.$ < <         _ ..dXfXfXfXqXqX%.g b . Q Q V.U U 5 r t r g t ; 3.3.7.; ;         ",
"L L fXfXdXdXdXfX&X&XX.1 1 1       v b XXyXyXeX8.8.Z X O I Q Q 3.9 9 ; P P P S S O I I 3.* *         ",
"L L fXfXdXdXdXdX&X&XX.1 1 . <     v v XXyXyXeX8.8.C X o I ! Q 3.9 9 ; P U P S M X I I 2.* *         ",
"L C iXiXfXdXdXdXdXdXiXB B + . . . . . @ %X%X5X$ $ . r q B.,.,.. . . T x.j.j.4.5.& @ % X + X         ",
"$ # V V &XdXdXdXiXiX9X2X2X$.. . . v v oXeXeX7X$ 4 ~ 7.7.^ t 7 % *.*.q.i.a.W F D 5.A D 1             ",
"$ $ V V &XdXdXdXiXiX8XdXdX&X....4 b b oX5X5X<X, , ,.N.N.; 5 6 G e.e.d.x.x.E R E g.Y G <             ",
"m b 3X1XiXfXdXdXdXfXdXdXdXfXpXaXM . + @ 8..X%X, 3 3.n.n.r Y T a.:X;Xl.z.c.p.b.v.u.P Y 8             ",
"m m *X*X8XuXuXsXdXdXdXsXfXdXsXdX1X%.%.O .X.X%X@ @ r H H . T T l.g.x.h.f.f.d.q.q.P 9 ; @             ",
"V B 3X3X4X9X7XfXdXdXsXdXdXdXdXdXdX$X$XX $.$.XXv v b N j . O.O.l.s.s.a.c.c.a.5.5.# 6 a N + .         ",
"m V 2X2X2X4X8XfXdXdXfXdXdXdXdXdXdX$X$X. $.$.XXv v b N j + O.O.l.s.s.f.c.c.h.5.5., a a N o .         ",
"v m 1X1X1X8X9XsXdXdXdXdXdXdXdXdXdX$X$X4 + + V $X&XtXrXrX7 Y Y c.c.c.x.;Xx.;X6.q.O oX+X3X; 5         ",
"4 4 X.X.#X9X7XtXaXaXfXiXiXiXfXdXdX8XwXOXZ Z $ X.X.#.#.#.o n t T R R Y W E Y D P . ....#.o o         ",
"@ , . . $.*X*X1XuXuXdX8X8XuXdXdXdXgXfX8Xo.o.O & & 0 ; ; 5 9 9 & ; ; 5 5 5 X . + , 3 3 2 6 6 o , 1   ",
"    . O $ b v *XiXiXdXaXaXdXdXdXfX>X>XZ # + 7 0.0.r.y.t.e.r.t.y.r.r.q.t.r.n g g U.U.Y.W.I.U.' . . 1 ",
"    . . V $.$.1XuXuXdXdXdXaXuXuXdX&X=X+ M M -.p.z.d.d.d.c.d.s.s.z.z.v.a.i.n g c E.(./. X{.].J.' ' * ",
"o o 4 4 8.7X7X2XuXuXdXdXdXiX4X4XfX=X=X0 =.2.g.s.s.j.l.l.h.g.f.i.a.p.x.h.h.A z z T. X|.)././. XR.R.3 ",
"o . 4 4 %.7X7X2XuXwXdXdXdXiX4X4XaX=X=X& =.=.z.s.b.b.l.l.h.g.g.i.f.a.j.h.j.A z c T.|.|.).).). XR.R.2 ",
"g b oXoX1X2X7X2X7X7X8XdXdXdXsXsXfX=X=X% =.=.z.z.l.;Xv.l.z.*.*.t r.e.l.j.j.A c f T.|.].[.~.~.'.Y.Y.f ",
"V V 3X3X7X3X3X2X2X2X2XiXuXiXpXpXdX=X=X, =.=.j.l.f.l.k.k.p.4.4.P t.w.t.=.=.7 j j ).(.(.].~.~.[.W.Y.3 ",
"y n 1X1X3X7X7X3X7X7X2X2X2X7X6X6XdX-X-X+ =.=.;Xg.x.p.;X;Xa.p.p.i.s.p.=.O O . j j R.}.}.E.Q.E._.E.T.e ",
"n n 2X2X0X4X7X6X3X3X5X3X3X2X4X4X5X@X@X, :.:.l.j.j.g.p.p.,X4.;.A S S 9 + +  .} } K j N ` T.E.].Y.Y.3 ",
"e e XXXXoX#X#X0X3X0X0X0X0X2X3X3X%X&.&.+ E E q.b.f.x.j.b.6.T R . g f g l l L.K.K.+ f 3 ) W.W.Y.H.H.- ",
": : @ @ . v m *X2X2X9X3X3X4X3X3XV $ @ + . . n i.t.z.e.y.7 X . # J.J./././._.J.K., { { ~.`.`.] : >   ",
": > & @ . b g =X2X2X9X1X3X4X3X3XM 4 @ + . X S t.i.g.y.y.7 . . o J.J./.).(.(.K.K.: { { E.`.`.] # #   ",
"          # # o...o.X.o.o.......5 8 8   d d > P P 6.f.f.;.F F + B J | (.E. XF.D.# c g _ ' ' f % X   ",
"                      i i s 8 s 8           8 . . E r.r.x.=.=.7 X . x ~.~.'.K.P.g - 2 6 @ + @       ",
"                                          . > @ % , u u :Xi.i.w.9 9 / R.R.[.(._.U.E.E.K.= =         ",
"                                    s 1 % p <.% % o X X +.O.-.W 0 0 / [.'.[._._.[.{. XP.2 2         ",
"                                  s # x B ` . > : # 2 2 . > 2 = O O ' }./.E.'.'.E.).).K.= *         ",
"                                . 8 s 1 % X p <.<.S.S.S.S.D.D.I.I.I.Y.}.|.{.[.|.'.[ [ 2 @ @         ",
"                              8 . s s i % X p } <.S.S.S.S.D.D.I.P.I.Y.}.|.{.[.[.'.[ [ 2 X @         ",
"                          . w f s = # x x B ` F.K.I.W.W.I.E.E.].[.[.I.| | | A.A.<.c c X             ",
"                        + @ . . + l z D.G.G.F.G.G.T.].`.|.E.Q.(.).).| O X X X X % + .               ",
"                          8 . . ` S.S.I.F.G.W.T.T.].|.).[.1.1.j f h e X X                           ",
"                    . w w c c z S.I.I.I.I.I.I.}.~.!.H.H.H.) ) X d d                                 ",
"                o + + 1.S.F.F.K.F.P.I.~.[.'.).^.^.` . . > + X <                                     ",
"                    : k k h x z k x J J x l / ( ) 6 < <                                             ",
"                    + k h h x x k J J J x / / ( / 4 < <                                             "
};
