/* XPM */
static char *_b7e9b9924cf4b528a4dc025165b8c038myptRukKBIm3qKi[] = {
/* columns rows colors chars-per-pixel */
"50 50 199 2 ",
"   c #7B796F",
".  c #7C7472",
"X  c #767A7A",
"o  c #7C7C7C",
"O  c #817675",
"+  c #99837C",
"@  c #7E9C9A",
"#  c #5F9DAB",
"$  c #6B99A3",
"%  c #659CA9",
"&  c #6FA3A7",
"*  c #7DA4AD",
"=  c #6DA9B7",
"-  c #6BAAB9",
";  c #78ACB8",
":  c #0FBEEA",
">  c #16BEEA",
",  c #5AB7CD",
"<  c #51B8CF",
"1  c #46BED8",
"2  c #58BAD4",
"3  c #62B1C4",
"4  c #68BACB",
"5  c #75B6C5",
"6  c #7AB5C3",
"7  c #46BFE2",
"8  c #02CAF7",
"9  c #01C9FB",
"0  c #0CCDF8",
"q  c #13CFF7",
"w  c #1BD1F7",
"e  c #22C0EA",
"r  c #3CC5EA",
"t  c #39CCEE",
"y  c #27CFFB",
"u  c #32CDF5",
"i  c #25D2F7",
"p  c #2BD2F7",
"a  c #25D3FC",
"s  c #2CD3FB",
"d  c #24DBFF",
"f  c #2CDCFF",
"g  c #32D3FB",
"h  c #37D5FA",
"j  c #3CD7F9",
"k  c #59C1DA",
"l  c #65C3D9",
"z  c #76C6D9",
"x  c #44C3E3",
"c  c #4BC6E4",
"v  c #47C5EA",
"b  c #4AC7E9",
"n  c #44CBEA",
"m  c #4CCBED",
"M  c #4BD6F9",
"N  c #45D8F9",
"B  c #5CD7F8",
"V  c #52DBFA",
"C  c #66C8E6",
"Z  c #6ED0E5",
"A  c #76D6EC",
"S  c #7CD3EA",
"D  c #62DBF9",
"F  c #67DCF8",
"G  c #76D9F3",
"H  c #71DFFB",
"J  c #7ADBF8",
"K  c #66E7FF",
"L  c #6CE1FC",
"P  c #70E0FC",
"I  c #828282",
"U  c #8E8684",
"Y  c #8F8D87",
"T  c #8E8E8E",
"R  c #928784",
"E  c #928B86",
"W  c #988F86",
"Q  c #918D8D",
"!  c #8E918B",
"~  c #93928C",
"^  c #98968C",
"/  c #889395",
"(  c #929292",
")  c #999695",
"_  c #939A94",
"`  c #9B9B92",
"'  c #92999B",
"]  c #9B9B9B",
"[  c #A59B93",
"{  c #A59E9C",
"}  c #94A19D",
"|  c #A6A59D",
" . c #AEA69E",
".. c #8FA6A7",
"X. c #85A5AC",
"o. c #9CA2A3",
"O. c #94A5A9",
"+. c #9EA7A9",
"@. c #92A9AC",
"#. c #85ACB5",
"$. c #87ACB5",
"%. c #91A8B0",
"&. c #8CB1BB",
"*. c #92B2BA",
"=. c #A5A5A5",
"-. c #ACA5A5",
";. c #A3ABA4",
":. c #A6A8A5",
">. c #A4ACAB",
",. c #ACACAC",
"<. c #B1A6A5",
"1. c #B0A7A8",
"2. c #B9AEAE",
"3. c #BBB7AF",
"4. c #A1ABB0",
"5. c #A2B3B5",
"6. c #ACB3B5",
"7. c #A4B6BB",
"8. c #AEB6B8",
"9. c #ACBABE",
"0. c #B5B4B4",
"q. c #BBB6B6",
"w. c #B5BABD",
"e. c #BABABA",
"r. c #C1B1AC",
"t. c #C4BABA",
"y. c #C9BABA",
"u. c #93B7C2",
"i. c #92BAC4",
"p. c #9BBDC5",
"a. c #93BBCE",
"s. c #ABBEC3",
"d. c #B1BDC0",
"f. c #95C0CB",
"g. c #9EC1CD",
"h. c #8ACADD",
"j. c #93C7D5",
"k. c #9CC7D1",
"l. c #9CC9D4",
"z. c #9ACCDA",
"x. c #ABC1C6",
"c. c #A3C2CB",
"v. c #ABC5CC",
"b. c #B4C4C5",
"n. c #B4C4C8",
"m. c #A3C5D1",
"M. c #A9C6D0",
"N. c #A5CCD6",
"B. c #A6CDD9",
"V. c #B3CAD3",
"C. c #BFCFD3",
"Z. c #A4D2DC",
"A. c #B2D0D7",
"S. c #BDD6DC",
"D. c #81CEE4",
"F. c #91CCE3",
"G. c #95CDE9",
"H. c #87D3E5",
"J. c #8DD6E8",
"K. c #97D6E7",
"L. c #93DBEC",
"P. c #87DBF0",
"I. c #95DCF3",
"U. c #9FDEF7",
"Y. c #95DEFC",
"T. c #9ADFF9",
"R. c #A2D4E1",
"E. c #A9DDEC",
"W. c #B9DCE4",
"Q. c #A1DFF9",
"!. c #8EE6FB",
"~. c #88E6FC",
"^. c #96E0F3",
"/. c #93E5FB",
"(. c #9BE5FB",
"). c #93EBFE",
"_. c #9AEAFD",
"`. c #92F2FF",
"'. c #9BF0FF",
"]. c #A3E2F3",
"[. c #AAE6FC",
"{. c #A5EAFB",
"}. c #BFEAF3",
"|. c #A8F1FD",
" X c #BBF7FF",
".X c #C1C1C1",
"XX c #C2D7DC",
"oX c #C6E8EE",
"OX c #C5EEFA",
"+X c #CBEEFB",
"@X c #D2EFFC",
"#X c #C7F3FD",
"$X c #CBF3FD",
"%X c #CCFCFF",
"&X c #D3F3FD",
"*X c #DAF4FD",
"=X c #D1FAFF",
"-X c #D2FDFF",
";X c #D9FCFF",
/* pixels */
":.:.=.) T ( ( ( ( ( T ( ( ( ( ] :.=.,.0.0.0.e.0.0.U I U ,.0.0.6.=.=.] ( ( T ( ( T ( ( ( ( ( ' =.-.:.",
"=.=.=.( T T T T T T T T T T Q ' =.=.,.0.0.0.0.0.6.I I I ,.0.0.,.=.=.) T T T T ( T T T T T T ( =.=.=.",
"=.=.=.) ( T ( ( T ( ( ( ( ( ( ] =.=.,.0.0.e.0.0.6.@ O o ,.0.0.,.:.:.] ( ( ( T ( T Q ( ( ( T ' =.=.=.",
"=.=.=.=.o.=.=.6.6.2.,.,.,.,.2.6.6.2.0.0.0.e.0.e.0.{ ] { 2.0.0.0.,.0.0.,.0.] I I T =.o.o.{ o.{ ( ( ( ",
"=.=.=.=.=.=.0.0.e.0.0.e.0.0.0.0.0.0.0.0.0.e.0.0.0.,.=.:.6.0.0.0.0.0.0.e.e.] O I T =.=.=.=.=.o.Q T T ",
"=.=.=.=.=.=.2.0.0.0.0.0.q.q.t.e.0.0.0.0.0.0.0.0.0.=.=.>.0.0.0.0.0.q.0.0.0.o.O O Q 1.<.=.=.=.=.T ( T ",
",.=.=.T U I ) ] ] ] ) ` 6 m m 4 ) ] ] ] ] ] ] ] ] ,.2.,.{ ] ] >.,.=.>.,.,.p.J.h.z c b 4 1.=.:.=.o.{ ",
"=.=.+.U O @ T T T T T R 3 d a < R ( T T T T T T ( 0.0.0.' Q Q o.=.=.=.:.| g.`._.H a d c  .=.=.=.=.:.",
"=.=.=.I I I U T T T T E 3 d d < W ( T T T T R R U 0.e.0.' Q ~ ] =.=.,.=.=.m.`.`.L a d m 1.=.=.=.=.=.",
"=.=.=.=.o.o.o.{ ] ] ] { $.5 6 X.I I T ] ] =.A.V.V.R.Z.K.+.] ] ] ) ' ) ' ) O.*.*.$.- - * ) ] ] =.=.=.",
"=.=.=.0.0.e.,.:.=.=.=.=.=.1.1.) I I T =.=.8.-X%X%X).).).5.=.=.) T T T T T T ~ Y ~ Y Q Q ( T ( :.,.=.",
"=.=.=.0.e.0.=.=.=.=.=.>.=.=.=.) I I T =.=.8.-X-X%X/.).).5.=.=.) T T T T T T ! T T T T T T T ( :.=.=.",
"=.=.>.0.0.0.0.,.2.=.] ] ] ] ] ( T I ( ] ] o.s.x.x.i.i.i.o.] ] o.=.=.=.=.=.=.=.=.=.=.=.=.=.=.] ( ( ( ",
"=.=.=.2.0.0.0.0.w.] T T T T T T T T T T T T U U U U U Y T T T ,.q.0.0.0.0.0.0.0.0.0.0.0.0.0.,.o I I ",
"=.=.=.0.0.0.0.q.0.o.T T T T T T Y U Y Y Y T T T T T T T T ( ( ,.0.0.0.0.0.0.0.0.0.0.0.0.0.q.,.o I I ",
"o.] o.-.=.,.,.6.,.=.) ) ] ) ] +.7.7.7.*.&.%.( T ( ] ) ' T U U 9.C.C.V.M.v.9.0.,.6.2.6.,.=.o.o.T T ( ",
"( T T T Q ( o.=.=.=.=.:.=.=.-.n.-X-X XT.).I.Q T T =.:.=.I O . W.%X=X[.I./.k.| =.=.=.=.] . o U +.,.=.",
"T T T T Q Q o.=.=.=.=.=.=.=.{ n.;X*X+XT.T.G.R Y T =.=.=.U @ . W.-X*X[.T.Y.p.| :.=.=.=.] O @ U =.=.=.",
"] ] ] ] ] ] =.:.=.6.d.d.s.7.5.l._.{./.J J S ....%.:.=.-.T T U z.|.{.^.Y./.m.-.,.1.,.,.o.T ( ' ] ] ] ",
"0.e.0.0.0.0.,.=.{ W.%X&X[.Y.Q.B 8 8 8 h p j ).).).4.=.=.=.=.-.x i i P /./.B.0.0.0.0.0.0.0.e.2.o I I ",
"0.q.q.0.0.0.,.=.{ XX%X&X[.T.Q.D 8 8 0 h s j /.)./.>.:.=.=.-.-.b s a H ).).B.e.0.0.0.e.0.0.e.,.o I I ",
"0.6.2.0.0.0.=.=.=.V.}.oXE.G.K.C : > e b v b L.L.K.+.=.o.o.=.-.2 t r A L.^.c.,.,.6.,.,.2.0.6.=.I T I ",
">.=.=.=.=.=.=.=.=.) U Q Q Q Q Y ~ ~ Q Q Q T Y T T ( ( ( ( ( T ! ~ Q T Y Y T ( ( ( ( ( ) =.:.:.=.=.=.",
":.=.=.=.=.=.=.=.:.] T T T T T Q T T T T T Q T T T T T T T T T T T T T T T T T ~ Q Q T ' =.=.=.=.=.=.",
"=.=.:.>.>.;.;.>.4.' T T T ( ' ( ( T T ( ( T ( T ( ' ~ ) T ( T ' ( ( ( ( ( ' ( ( ( ( ( ] =.=.=.=.=.,.",
"=.=.:.I.)./.M u g % . X ] e.0.:.T T ( =.=.=.=.=.,.+X$X#X(./.).s.2.0.0.6.0.2.0.,.0.0.6.0.e.0.e.0.0.0.",
"=.=.:.^.)._.N p f #   X ] .Xt.,.T T ) :.=.=.:.=.-.#X$X&X_./.).x.0.0.0.0.0.0.0.0.0.0.0.0.0.0.0.0.0.0.",
"=.=.:.^.)./.M s f % . X ] d.e.,.T T ( =.=.=.=.=.:.+X@X@X_././.b.3.e.q.0.0.0.0.0.0.0.2.0.0.e.e.0.0.0.",
"=.-.:.} ' ' / @ X./ U T ( ) ) ' ( T ( ( ( O.^.I.J.N N N w q q t n j ; ^ ' ) ' ) ) ) ' o.0.0.0.=.,.=.",
":.=.=.( T T T T T T T T T T Q T T T T T T ' ).).!.g y g 0 8 8 i h d = E T T T T T T T ] 0.0.6.-.=.=.",
"=.=.=.( T ( T T ( T T Q ( Q R Q ( T ( ( Q ' `.`.).s s s 9 9 9 y s d - R ( ( ( ( ( T Q ] 0.0.0.=.=.=.",
"=.=.-.o.o.o.,.,.,.] T T = n r 5 2.6.2.,.,.>.@.....&.&.*.& $ $ u.c.f.7.,.,.2.,.2.=.o.] =.,.>.,.=.=.=.",
"=.=.=.=.=.=.0.e.e.o.T W 3 d d C y.e.e.e.e.2.U T ~ =.-.-.~ T E 2.t.e.e.e.e.e.e.e.6.:.=.:.=.=.=.=.=.=.",
"=.=.=.=.=.=.0.e.e.o.Q R 3 f d C t.e.e.e.e.6.( T ( =.=.=.( T U 2.w.e.e.e.e.e.e.e.2.=.:.:.=.=.=.=.=.=.",
"T Q ( =.=.,.,.,.,.=.] o.X.= = $.,.,.6.2.,.,.] ] o.2.2.,.,.,.,.,.,.,.c.R.Z.R.R.K.c.0.0.6.0.0.,.( T T ",
"I I I o.=.=.=.=.-.=.=.=.) E E ) =.=.=.=.=.=.:.:.>.w.e.e.e.e.q.=.=.{ z.Y.T././.).R.e.e.e.e.e.,.o I I ",
"I I I =.:.=.=.=.>.=.=.=.] T Q ) =.=.=.=.=.=.=.=.=.e.e.e.e.e.e.-.{ [ z.T.U.T.(./.R.r.e.w.e.e.,.o I I ",
"' ( ( ] ] ] ] ] ] ] ] ] ' Q T ( ] ] ] ] ] ] ] ] o.M.B.B.S.XXS.N.l.m.S D D D D D P.Z.Z.x.=.=.=.( ( ( ",
"=.-.=.( Q T T T T T ~ T T T ( ! T T T T T T ( T T Y.Y.Y.OX#X$X{.).).V i s s u a M /.`.F.U T ( =.=.,.",
"=.=.=.( T T T T T Q Y Y ! E E ( ( T T T ( T T T _ /.Y.T.+X&X*X{./.(.B a g s p a V _.`.F.U T ( =.=.=.",
"=.=.=.=.{ o.] ) ) %.*.*.; - - * ] ) ) ] ] ) T T ' a.a.a.].{.{.!.~.~.l , , 4 l 2 z l.z.p.=.=.=.,.,.,.",
"=.=.=.0.e.e.,.=.=.K.`.'.K d d k <.=.=.=.=.=.( T T Y R U Z L F H H L X.+ R [ <.<. .| { 1.0.e.e.0.e.e.",
",.:.=.0.e.e.,.=.| z.`._.D p d 2 <.=.-.-.=.o.T T T T Q Y G L H H H K $.Y T ] =.=.:.:.:.,.e.e.e.e.e.e.",
"=.=.:.,.0.0.,.=.=.p.K.j.z 1 7 5 { o.] o.o.] ( T Q ' ' _ h.D.D.H.H.P.*.) ] =.=.:.=.] o.=.,.,.,.0.0.0.",
"=.=.=.=.=.=.=.=.=.' U Q Y E W Q T ( T ( ( T T T ( =.=.=.=.-.{ q.t.e.e.e.e.,.=.:.o.( T ( ( ( ' =.=.=.",
"=.=.,.=.=.=.,.=.=.) T T T T T T ( T T T T ( T T ( =.=.=.=.=.=.0.e.e.e.e.w.2.=.>.] T T T T T ( =.=.=.",
"{ =.o.o.o.{ o.=.=.( T T T U T ( ] ] ] ) ) ] ( ( ( =.:.:.=.=.=.0.0.0.0.0.2.=.=.o.] T T ( ( ( ) :.=.,.",
"T ( ( ( ( ( Q ( ( T T T U O @ ) d.0.0.e.0.0.=.=.=.=.:.=.,.=.=.=.:.:.] Q ( ( Q ( ( T T ( :.=.=.=.=.=.",
"T T T T T T ( T T T ( ( U @ I ) e.e.e.e.e.0.>.=.=.,.=.=.=.,.=.=.=.=.] T T T T T T ( T ' =.=.=.=.,.=.",
"T T T ( ( T ( T ( T T T I O I ) e.e.e.e.e.0.=.=.=.=.=.=.=.=.=.=.=.=.) T T ( T ( T ( T ) =.=.=.=.=.=."
};
