/* XPM */
static char *ac1d285f99dd40e3a5492fd9459e6312vtPvaSbY3h4WcF0y[] = {
/* columns rows colors chars-per-pixel */
"50 50 142 2 ",
"   c None",
".  c #000003",
"X  c #171108",
"o  c #271F0F",
"O  c #23231F",
"+  c #2A261E",
"@  c #1C222C",
"#  c #252B36",
"$  c #2A2E39",
"%  c #683B1E",
"&  c #543C2B",
"*  c #693D22",
"=  c #5E453A",
"-  c #6D4224",
";  c #6F4929",
":  c #714422",
">  c #784421",
",  c #744926",
"<  c #794E24",
"1  c #72462D",
"2  c #78462B",
"3  c #754A29",
"4  c #784E2C",
"5  c #77502D",
"6  c #7B512D",
"7  c #684F3E",
"8  c #774D30",
"9  c #794F33",
"0  c #6E5630",
"q  c #7D5533",
"w  c #7F5835",
"e  c #74623A",
"r  c #363D45",
"t  c #4F4A42",
"y  c #525454",
"u  c #7A6145",
"i  c #7A6350",
"p  c #7F6855",
"a  c #767A64",
"s  c #81562D",
"d  c #825A35",
"f  c #885F35",
"g  c #8C6437",
"h  c #86603A",
"j  c #8C653B",
"k  c #96673D",
"l  c #956D3D",
"z  c #99723F",
"x  c #8B6742",
"c  c #866C4D",
"v  c #9A7440",
"b  c #9C7847",
"n  c #99764B",
"m  c #9C7A4F",
"M  c #836C59",
"N  c #8E755C",
"B  c #927D51",
"V  c #957A5B",
"C  c #A77E50",
"Z  c #A47E59",
"A  c #A68147",
"S  c #A88345",
"D  c #A78148",
"F  c #AA8549",
"G  c #AD8A4C",
"H  c #B3874A",
"J  c #B18D4E",
"K  c #AF924D",
"L  c #B6924E",
"P  c #BB974F",
"I  c #AD8C52",
"U  c #A1855E",
"Y  c #AF9254",
"T  c #B49352",
"R  c #BA9653",
"E  c #BD9B55",
"W  c #B69658",
"Q  c #B7995A",
"!  c #BC9C59",
"~  c #9A977F",
"^  c #A18B66",
"/  c #BB9D62",
"(  c #AF9D73",
")  c #B29B72",
"_  c #B6A375",
"`  c #BCAB7F",
"'  c #C49A4E",
"]  c #C29D55",
"[  c #C19F5C",
"{  c #C99F58",
"}  c #C3A14F",
"|  c #C3A153",
" . c #CBA957",
".. c #C4A25A",
"X. c #C9A65A",
"o. c #C5A85B",
"O. c #CBAA5A",
"+. c #D4B05D",
"@. c #C4A563",
"#. c #C7A966",
"$. c #C9AB67",
"%. c #C0A76F",
"&. c #C4AA6A",
"*. c #C9AE6D",
"=. c #CAB06B",
"-. c #D2B161",
";. c #C9AF70",
":. c #CAB274",
">. c #CCB67B",
",. c #817F8B",
"<. c #8B8A99",
"1. c #9398A2",
"2. c #A9ADA7",
"3. c #B2B5A6",
"4. c #C6B680",
"5. c #CCB784",
"6. c #CEBC87",
"7. c #C3B288",
"8. c #CEBC8B",
"9. c #D4BE84",
"0. c #CFBE90",
"q. c #D0BE90",
"w. c #CEC18F",
"e. c #D4C084",
"r. c #CEC394",
"t. c #CFC699",
"y. c #D0C393",
"u. c #D6C994",
"i. c #D1C29A",
"p. c #D2C99E",
"a. c #DDCF9B",
"s. c #C3C0A6",
"d. c #D3C6A3",
"f. c #D3CCA5",
"g. c #D9CFA1",
"h. c #D3CFA9",
"j. c #D4D2AB",
"k. c #DCD5A9",
"l. c #DFD8AC",
"z. c #E0D9AC",
"x. c #E4E0B3",
"c. c #E9E0B1",
/* pixels */
"6 4 > : : : : : : : : : > : : : : : : : : : > 4 6 6 4 > : : : : : : : : : > - : : : : : : : : > 4 4 ",
"4 x U U U U U U U ^ U U U U U ^ U U U U U U U x 4 4 x ^ U U U U U ^ U U U U U ^ U U U U U ^ U U x 4 ",
"> U x.k.k.l.z.z.l.l.l.k.k.l.l.z.z.z.z.z.k.k.x.U > > U x.k.k.z.z.l.z.z.k.k.k.z.k.z.z.z.z.l.l.l.c.U > ",
": U k.=.T d d d d w f @.@.@.h w d d d 9 T $.#.b 2 2 b $.#.J q d d d d g @.@.@.f d d d d w T =.g.U : ",
"> U k.$.F - 4 2 2 : 4 ] ..] 4 2 4 2 > % J ....z 4 4 z ....J % > 2 4 2 4 ] ..] 6 * 2 2 4 - F $.z.U > ",
"> U z.$.F 1           ....E 6 4         ....O.v 4 4 z O.....        4 6 ] ....          1 F $.z.U > ",
"6 7 y ! H 1           8.q.w.q 4             O.z 4 4 v O.            5 q y.q.8.          1 H E y 7 4 ",
"3 7 r Q H 1           p.i.u.q 4             O.v 4 4 v O.            4 q y.i.p.          1 H Q r 7 4 ",
"< M 1.@.G %           j.>.! 3 *              .v 4 4 z O.            - 4 E >.j.          % G @.1.M < ",
"> V s.&./ ) r.k.j.:.X.:.#.] F J O........... .v 4 4 v O...........O.G F ] #.:...:.j.k.r.) / @.s.V : ",
"* U z.o.&.d.i.i.i.&.R ] o.@.| ] | E ! E ] .. .z 4 4 v o...! E E E E ] ] @.o.] R &.i.r.i.i.$.#.z.U > ",
"> ^ k.#.G , 3 3 4 , 6 E >.d.d , 8 4 8 8     ..z 4 4 v ..    8 4 4 4 , d f.>.E 6 , 5 , 3 1 I #.k.U : ",
"> U k.$.F : 4       d E >.g.q 4       6     e.m 2 2 m e.    6       4 q f.>.] d       4 - F #.k.U > ",
"> U k.$.F 1           ..>.f.q 4             z.^ > > ^ z.            4 d f.>.|           1 F #.k.U > ",
"> U z.$.F 1           ..o.o.6 4             k.U > > U k.            4 6 o.@...          1 G #.k.U > ",
"> U g.$.F 1           ....] q 4             k.U > > U k.            4 6 ......          1 F #.k.U > ",
"> U k.#.F -           ....! 4 :             l.U > > U l.            - 4 ! ....          - G #.k.U > ",
"> U k.#.E J E ............] L T o.q.f.d.f.i.*.b 2 2 b *.i.f.d.f.0...W T [ [ ..] ......E J E @.k.U > ",
"> U k.#.......] ..................5.q.q.q.5.o.v 4 4 v ..5.y.8.q.5.......X...................&.k.U > ",
"> U k.#.............[ ..............| | ..o...v 4 4 v ....| | | ..........[ ................@.k.U > ",
"> U k.@.....................................O.v 5 5 z O.X...........] ..] ....| ..[ ........$.k.U > ",
": U k.$.] ............] ......] ..T T R K K | l < 5 l X.G G R T T ........................] @.k.U - ",
"> ^ c.$.....] ....................t $ $ . . 5 6 6 5 6 5 . . $ $ t X.........................#.c.U > ",
"3 u a Q ........................O.+ O B e 0 4 4 6 6 5 5 0 0 U O + O...................] ....E a u 4 ",
"4 & # I [ R ] | | ! E o.....R ] X.X o -.-.X.q 6 4 4 6 d X.-.-.o X X.] E ..o.@.E E | | ] R ..I # & 6 ",
"4 M <.@.G , 3 3 3 : q p.>.! d 3 9 ; 3 : H ....l 4 4 l ..] F 3 2 ; 8 2 d E >.p.q - 3 3 3 3 G @.<.M 4 ",
"< V 3.@.F - l z z z b g.>.R 9 f v v z l / :.O.v 4 4 v O.:./ l v v v d q R >.f.b z z z l - F @.3.N < ",
"> U z.$.F - P $.O.o.#.f.>.] 4 l -.O.O...r.p.@.v 4 4 v o.p.y...X.O.-.l 4 ] >.f.@.o.O.-.L - F #.z.U > ",
"- U k.$.S % H ........d.>.E 3 x ] ....} 8.p.o.v 4 4 v o.p.8.| ....] j 3 E >.d...| ....G % D $.k.U : ",
"> U k.$.J f Q :.;.*.:.d.>.E g D ;.;.;.;.5.5...v 2 4 v o.5.>.;.*.:.;.C g ! >.d.>.:.*.*./ f J $.k.U > ",
"> U k.&.] ..t.j.f.j.f.h.>.....:.j.f.h.j.;.| o.v 4 4 z o.| *.j.h.h.j.:.| | >.h.f.h.h.j.r.....$.k.U > ",
"> U k.$...o.$.*.*.*.*.*.@.[ ..@.*.*.*.*.o...o.v 8 4 z O...@.*.*.=.=.@.....@.*.*.*.*.;.$.....$.g.U > ",
"> U k.@.R J J J J J L ] ..] T J J I J J E ..O.z 4 4 v O...E J J J J J T ....] J J J J J J E #.k.U > ",
"> U k.#.G * : * - * 3 E ..E 6 - - - - * F ....v 4 4 z ....G % - - - : 4 E ..E 3 - - - - - F $.k.U > ",
"> U k.#.F - ^ ( F D I 8.;.| 9 g D D D A %.5...v 4 4 v o.5.%.D D S C g 9 ] *.8.G A D ( ^ - F $.k.U > ",
"> U k.$.G * 7.a.....#.f.>.] 2 v +.......y.p.o.v 4 4 v ..p.w.......$.v 4 ] >.h.#.....a.7.% F #.k.U > ",
"> U k.$.G * J o...X.@.f.>.] 2 x ......| 8.i.@.v 4 4 v @.t.6.| ..| ..k 4 ] >.f.#.....@.J - F #.k.U > ",
"> U k.$.F - G ..| ..@.f.>.] 4 n 9.>.;.} 6.i...v 4 4 v ..q.6.} ;.>.9.n 3 ] >.f.@.| ....G - S $.k.U > ",
": U g.#.F - I ......#.d.>.E < V k.f.q.} 8.t.o.v 4 4 v @.t.8.] y.f.k.V < R >.d.#.......G - G #.k.U > ",
"> ^ c.#.] ] O.........#...] ] X.$.$.@...@.@...v 4 4 v ..&.@.X.@.@.$...| [ X.@.o....... .] ! $.c.U > ",
"< x <.! E D D D A A F ! ..| G C D A A D R ..X.v 2 4 v o...R D A D D F F ] ..] G D D D D D E [ <.c < ",
"5 = O T F - - - - * 4 ! ..E 3 - : - - * G ....v 8 4 v ....G * - - - - 2 E ..E 3 * - - - - F T O & 4 ",
"5 i ,.@.F - S P J J Q r.;.] q g E J J J 4.r.o.v 6 4 v ..w.>.J J J ! g 9 ] :.r.W J J P S - F o.<.i 4 ",
"< N 2.&.F - L O.....#.f.>.] 4 l O.X.....0.i...v 4 4 v o.p.0.......O.v 4 ] >.f.#.....O.L - F [ 2.N < ",
"> U l.$.F - G ..| ] [ f.>.] 4 k ....| ' 8.q.@.v 4 4 v @.i.8.] ] ....k 4 ] >.f...} | ..G - F &.l.U > ",
"> U k.$.S % _ y.9.9.8.h.>.] : m u.q.6.6.d.t...v 4 4 v o.q.d.9.6.9.u.n , E >.d.q.6.6.y._ % F &.k.U > ",
": U k.$.G 4 ` d.i.i.i.q.:.] d Z g.q.i.i.q.0.o.v 4 4 v ..8.i.i.i.i.g.Z s ] :.i.q.i.i.f.` < G $.k.U : ",
"> U x.$.O. .O.o.@.....@.o. . .X.o.@...@...@.+.v 4 6 v O.....@.o...o.O. .O...@.@.o.o.o.O. . .$.x.^ > ",
"< x U b z z z z v v z v z v v v v v v v v v v f 4 5 f v v v v v v v v v v v v v v v v v v v b U x 4 ",
"5 5 > 4 4 4 4 6 4 4 6 4 4 4 4 4 4 4 4 4 4 4 4 4 6 5 4 4 4 4 4 4 4 4 4 4 4 4 4 4 4 4 4 4 4 4 1 > 4 4 "
};
