/* XPM */
static char *fb2044e9ee584207d5f0d8edd32c4ac66FDGOVuLoqQyE92V[] = {
/* columns rows colors chars-per-pixel */
"50 50 211 2 ",
"   c #3D220D",
".  c #4E250C",
"X  c #4D2A0D",
"o  c #462509",
"O  c #532C0C",
"+  c #582C0F",
"@  c #4C2D15",
"#  c #4F2F18",
"$  c #532D13",
"%  c #552E19",
"&  c #4E321C",
"*  c #543115",
"=  c #5C3416",
"-  c #54341B",
";  c #5A351B",
":  c #563A1E",
">  c #5C391E",
",  c #61361B",
"<  c #633B1C",
"1  c #6D3F1E",
"2  c #502F20",
"3  c #5A3622",
"4  c #563A22",
"5  c #5C3B23",
"6  c #5D3D29",
"7  c #55382D",
"8  c #5C3F31",
"9  c #633E23",
"0  c #683F21",
"q  c #623D2A",
"w  c #683F29",
"e  c #6A411E",
"r  c #71441B",
"t  c #5D4125",
"y  c #5E432C",
"u  c #634125",
"i  c #6A4425",
"p  c #6D4A26",
"a  c #63442C",
"s  c #6A452B",
"d  c #66492E",
"f  c #6B492D",
"g  c #734625",
"h  c #744925",
"j  c #7B4D24",
"k  c #744C2C",
"l  c #7B4E2D",
"z  c #70462E",
"x  c #75512D",
"c  c #7B532D",
"v  c #7F582F",
"b  c #654531",
"n  c #6C4531",
"m  c #664A31",
"M  c #6C4C33",
"N  c #6D4D3A",
"B  c #734D32",
"V  c #7A4E32",
"C  c #734E39",
"Z  c #6D5135",
"A  c #6E533C",
"S  c #745235",
"D  c #7B5435",
"F  c #7D5836",
"G  c #74533A",
"H  c #7B553A",
"J  c #76593B",
"K  c #7C5A3C",
"L  c #765836",
"P  c #694D41",
"I  c #6D5042",
"U  c #735542",
"Y  c #7C5641",
"T  c #735945",
"R  c #7C5C43",
"E  c #7C5D49",
"W  c #765649",
"Q  c #7B5F51",
"!  c #7E6144",
"~  c #7D624D",
"^  c #7D6553",
"/  c #776557",
"(  c #7E725A",
")  c #824D2D",
"_  c #82532B",
"`  c #84592F",
"'  c #815534",
"]  c #825933",
"[  c #8C5B37",
"{  c #81563B",
"}  c #825B3C",
"|  c #8B5D3C",
" . c #915B39",
".. c #83613E",
"X. c #8B623E",
"o. c #996A3F",
"O. c #96673F",
"+. c #835D42",
"@. c #8A5E42",
"#. c #835F49",
"$. c #846244",
"%. c #8B6344",
"&. c #8C6845",
"*. c #84634B",
"=. c #8B654B",
"-. c #86684C",
";. c #8D6A4C",
":. c #926543",
">. c #986744",
",. c #946A45",
"<. c #9A6B45",
"1. c #91654A",
"2. c #946C4C",
"3. c #9A6D4C",
"4. c #94704D",
"5. c #9B714D",
"6. c #97754B",
"7. c #846653",
"8. c #846A52",
"9. c #8D6C53",
"0. c #876758",
"q. c #856959",
"w. c #8B6D5A",
"e. c #8D6750",
"r. c #936D52",
"t. c #9A6D52",
"y. c #8E7155",
"u. c #8D7259",
"i. c #827058",
"p. c #947255",
"a. c #9A7253",
"s. c #93735B",
"d. c #9B755A",
"f. c #957A5E",
"g. c #9C795C",
"h. c #9B7956",
"j. c #A16E47",
"k. c #A2744D",
"l. c #A8744F",
"z. c #A17352",
"x. c #A47A55",
"c. c #AB7B55",
"v. c #A3765A",
"b. c #A47B5C",
"n. c #AA7C5C",
"m. c #B87C57",
"M. c #947762",
"N. c #987562",
"B. c #937A64",
"V. c #9C7B63",
"C. c #937C6D",
"Z. c #9C7F6B",
"A. c #8D7E75",
"S. c #A37C61",
"D. c #AC7E60",
"F. c #A07D69",
"G. c #AC835C",
"H. c #AF885F",
"J. c #AB8157",
"K. c #B3845D",
"L. c #BA845D",
"P. c #B3855B",
"I. c #9B8065",
"U. c #9C8169",
"Y. c #8F867F",
"T. c #9C8272",
"R. c #92867D",
"E. c #9A8778",
"W. c #A38165",
"Q. c #AC8363",
"!. c #A2846C",
"~. c #AB846A",
"^. c #A6896D",
"/. c #AD8A6B",
"(. c #AD8965",
"). c #B38463",
"_. c #B58A65",
"`. c #BB8B65",
"'. c #B3876B",
"]. c #B48B6C",
"[. c #BA8D6C",
"{. c #BD8560",
"}. c #B6916E",
"|. c #BD916E",
" X c #BF9062",
".X c #A28771",
"XX c #A48A74",
"oX c #AC8C71",
"OX c #A68E7C",
"+X c #B38D71",
"@X c #BB8E71",
"#X c #AF9177",
"$X c #AE927A",
"%X c #B59275",
"&X c #BD9474",
"*X c #BF9973",
"=X c #B7967B",
"-X c #BB957A",
";X c #BE9A7D",
":X c #C18663",
">X c #C28F6A",
",X c #C08962",
"<X c #C3906B",
"1X c #C19374",
"2X c #C59A74",
"3X c #C19A7A",
"4X c #CA9C7C",
"5X c #8E8889",
"6X c #938783",
"7X c #C59C82",
"8X c #C6A48B",
/* pixels */
"m.L.>X5.3.4.4.&.t.@.H { ) z V &.).{.b.,.&.,.4.,.,.D ' ' V D } u ; q C C H ' ' _ >.`.P.c.x ] p }.H.P.",
":XL.{.3.:.2.2.p.t.@.V { { { } ,.@X1XQ.5.4.y.4.4.3.' D { ' } K u - 6 N +.{ ' ' j O._.`.x.h } K *XH.P.",
":XL.m.z.2.6.2.p.1.@.+.{ { H H D ].[.D.2.;.4.;.;.%.{ D { H L Z f : > p L V D D D a.].*Xb.i #.+.+X<X|.",
" .[ | ,.&.4.f i w z { V V +.H H z B s t u d p d f H H H f t t $.-.X.} L { 3.G.Q.a.p.b.$.$ q 3 B p i ",
") l ' 3.a.g.f * $ z +.{ V H L B $ = : * 5 t : t ; C C G q - 4 -.h.6...r x 6.=X=X~.r.s.#.3 % 3 9 : : ",
"' l ' $.&.;.d * 0 C +.H H R H M ; < > 5 t t - - 5 Y +.#.u 5 4 ! 6.6.X.c F I.%X^.9.s.e.#.q % w 9 > : ",
"v.z.b.$.$.$.L Z z s 9 s #.F.!.9.#.@.+.! -.K Z Z C d.V.S.f u 4 A F v F L S K T N 7..XZ.N.N.#.D.B Z Z ",
"[.[.].$.S Z J K =.w . % =.=X=XS.r.r.2.;.y.-.K L #.+X7X=XB t - L v x D K G d 2   T XXF..X7X~.3Xs H J ",
"'.D.~.#.K Z K L G % , , =.8X#XoX,.2.a.&.4...K p V Q.D.7X+ < X S D } V C U b a & T ^.B.^.^.}.G.x K L ",
"S.N.S.#.! ! p.p.~.H V s G =.G R 3.3.5.| $.&.6.a.3.v.v.D.} { D K z { C B M N A 6 ~ $X^.(.h.J.6.v L S ",
"r.r.r.#.-.-.W.oX7X1.H z s ; @ s 3.>.X.h x X.H.&X).2.3.| b.2.p.F C +.w ; 3 n W N -.=X/.^.&.,.o.c { K ",
"r.e.r.$.-.*.G.].-X1.V { B : * B v.t.:.x x X.Q.&X[.3.z.@.Q.3.g.K Y Y q $ % s Y J p.%X/.(.6.6.,.F D D ",
"w.e.r.#.$.K r.b.v.t.1.t.@.3 > S t.3.:.D F ..4.4.1.1.t.2.D S K J R H +.#.#.} D { %.J.g.a.H D D x D F ",
"r.r.r.Y K S ;.5.:.D.@X1X1.% 5 f 2.1.&.D R L K S D r.t.d.; ; : f S L d.;X3Xz.c l ] 3.2.} * $ ; S L D ",
"e.t.t.H S S &.2.| D.>X1X1.$ 9 f d.r.r.H R L R G H r.t.N.5 6 : Z L L h.3X*Xk.j _ [ 3.3.$.; % 6 #.H S ",
"d.N.N.H k x %.;.:.D.v.D.@.$ n N p.e.$.f M d Z M M Y #.$.d d m Z ! x %.6.2.[ g ' | :.%.@.w q n =.=.1.",
"}./.-X< 5 o $.r.r.r.r.t.$.G I E f.d.! : 5 4 5 4 3 - b % N E G G K L 9 . $ i D | D ' k { V { 1.+X`._.",
"G.G.}.> 9 % 9.d.r.t.r.t.*.T T ~ s.r.R ; > - t 5 5 # 5 % Z $.J R G D 0 + , s C H D D k { D K %.)._.`.",
"_._.}.p s > $.#.=.%.1.#.R U T ~ p.-.$.p u q C M C d C d M S f K %.%.{ D H D B B H #.+.%.D D } b.n.n.",
"H.(.}.K K M $.H D { } H +.*.7.*.f i D k H =.@X@X=X-X7X].p.&.K (.[.}.[.&X+Xd.#.H $.r.9.=.D D ] 5.3.<.",
" X(.}...} S H k V V l V +.=.7.E F c } D ] 1.+X&X~.'.%XQ.' h e x._._._.}./.p.A d E u.y.;.S L D 1.<.:.",
"J.J.J...L S +.%.:.@.@.@.=.=.7.#.F F F p D } S.D.Q.Q.Q._.} ' g G.P.P.c.b.S.9.J A ~ M.u.-.K $.$.3.2.3.",
"v v x x D $.v.+X).).).D.S.p.r.u.2.4.$.e < i D H %.;.&.a.< < O :.k.<.[ ] ..K J T ~ U.U.I.-.4.;.5.2.3.",
"v c c L S +.r.].'.).].`.b.9.e.s.-.4.+.= q i S L H ;.4.a.= < O 3.<.o.] k L J A A 8.T.U.I.9.p.;.2.2.2.",
"` v F p L K S.}.D.).{.D.v.t.r.r.9.y.9.o q 4 Y G H 9.r.$.B u u F 5.o.X.| S L ! m 8.B.U.XX$.d.2.d.r.2.",
"O.O.6.K F S } $.' >.z.3.@.H L R 9.u.y.- M 6 m 6 b C Y R e.9.$.%.' ' j c x $.g.-.;.f.s.*.* : 5 L K H ",
"6.&.6.L L B R ] V @.z.3.@.H H #.s.u.8.& 6 & 4 @ 6 N G Y 9.s.;.$.D ] ] H D $.a.$.y.y.e.$.@ : 5 +.H D ",
"6.;.-.L G R H B V @.3.3.@.{ Y T s.u.~ 7 4 4 b q b G R G =.2.;...B L D D B %.b.2.4.;.&.-.> t : N D D ",
"F L R -.9.8.C ; s l [ } +.H G N y y d 4 4 5 N N C G L B p.h.a.F L Y n < < | `.).K.Q.Q.W.S J G 9.9.2.",
"p x S ;.s.w.M = , 1 V V H J H S : - : : * u G R H H +.V 3.2.2.F A U a - = | >X,XP.{.K.b.z T E Z.r.2.",
"..K L u.9.8.f > ; z } } D C G A > * * u $ u z C H V } k 3.:.,.%.A T m ; , O.<X{.,X,XK.v.B E Y 7.r.3.",
"L x Z p.s.u.H S V 1.D.v.%.} R ! $...$.b.1.a.3.r.@.s 0 1 b.G.H.5.V.Z.E ; $ ) c.j.l.z.3.b.=.Z.q.~ R } ",
"F x F -.p.y.F S ] z.1X[.t.D V +.N.r.4.2X2XH.<.a.s.6 2 % ~.-X`.).@X8X$.@ 9 { 2.3.1.;.e.w.U.6XZ.T J G ",
"] D ] &.4.;...F ' a.`.'.3.{ D +.r.;.5.`. XP.5.4.9.8 7 7 Z.'.[.m.~.%X+.$ , H t.p.p.s.M.M.Z.OXC.T U L ",
"%.$.$.} $.K F D D 1.n.n.&.D D K r.2.>.o.j.o.j.,.w.W P P N.d.n.X.D #.B = < K d.=.=.=.w.e.~ w.^ y M d ",
"3.a.2.K L L L Z B %.t.t.@.S K } a.p.%.r r ` <.4.s.0.^ q.N.2.3.e $ $ ; 5 = H d.2.2.r.p.$.G Y N & ; ; ",
"r.p.r.$.J L J L H @.t.t.@.H K +.d.r.:.h _ ` <.2.w.0.0.w.M.e.3.i > % 3 > ; S a.a.a.r.r.%.L L B ; , = ",
"H L L M d d L K H #.r.t.#.H J } %.| :.<.k.<.%...#.E W W 7.*.=.D N f G L G K +.=.@.@.| %.t.t.1.@.%.%.",
"3 ; 5 > 4 t d L C @.t.w.@.G G L { V X._. Xx.| D H Y U I U E C K G R 8.w.d.=.s H H ' l ,.[.1X_.[.<X|.",
"9 ; ; > 4 t d K D #.t.t.#.H G H +.l } 3X2XJ.F D C G Y U Y #.M #.Z E e.9.!.r.9 ] k l 1 | `.<XK.`._.).",
"s f u L Z J Z J C #.#.1.+.G @.G { ' @.v.b.a.$.$.+.C Y E a Z Z Z Z M Y R R H { H D 3.>.>.n.K.l.K.c.n.",
"L S Z -.u.f.! S L { H H V C +.G H C H t.4.5.&.r.r.H B C 5 t : 4 - : 7 3 5 d H C 1.[.[.b.k.<.O.j.<.<.",
"+.H L y.I.I.*.S H D z V k C +.C Y { } p.p.h.p.g.r.+.z B 5 > & & 5 5 9 ; ; s H L ;.-X4Xn.3.<.>.<.<.,.",
"@.+.! $.$.! R L V #.1.t.+.G K B B B C e.-.*.R $.{ 1.:.=.B s a m u s M f d B G M +.b.b.3.3.z.<.>.3.2.",
"2.2.;.+.L L S D V t.'.1Xa.D H B 9 q q W G Z 5 u 0 n.@X'.} G J J L L =.d.p.=.#.H K K K +.2.a.>.:.>.2.",
"t.r.4.} L x S x V t.1X1Xz.H D s 3 3 6 U A N > ; , ).4X[.%.L J G B B %.d.r.#.G M G B C +.1.a.a.a.t.3.",
"2.2.2.F F L $.%.@.z.D.D.2.D ] S 5 6 y ~ ^ T u q < D.m.n.%.F K S ] { @.r.;.$.=.*.R Y +.#.-.r.2.$.%.%.",
"3.2.3.L S F J.[.n.v.3.z.:.,.r.%.C U ^ T.E.C.R H g n.>.3.>.-.9.#.H V D D J 9.Z.T.N.p.=.#.K +.B $ 5 > ",
"2.2.2.K D D x._._.z.<.>.2.3.3.%.D G / R.R.A.U L _ >.3.2.t.r.r.} H G ' ' S i.6X6XB.w.t.#.{ H G 5 5 5 ",
"2.2.3.H ' _ z.`._.z.>.3.3.3.2.X.D G / Y.6XA.T H D >.1.3.t.r.2.} G G ' ' x ( 5X5XB.p.t.1.H H C 6 6 6 "
};
